<?xml version="1.0" standalone="no"?>
<!DOCTYPE svg PUBLIC "-//W3C//DTD SVG 20010904//EN"
 "http://www.w3.org/TR/2001/REC-SVG-20010904/DTD/svg10.dtd">
<svg version="1.0" xmlns="http://www.w3.org/2000/svg"
 width="800.000000pt" height="800.000000pt" viewBox="0 0 800.000000 800.000000"
 preserveAspectRatio="xMidYMid meet">
<metadata>
Created by potrace 1.11, written by Peter Selinger 2001-2013
</metadata>
<g transform="translate(0.000000,800.000000) scale(0.100000,-0.100000)"
fill="#000000" stroke="none">
<path d="M3488 6929 c-34 -18 -56 -38 -173 -159 -116 -119 -156 -127 -365 -74
-214 54 -264 30 -366 -178 -82 -171 -129 -206 -283 -214 -142 -7 -208 -13
-235 -24 -48 -18 -100 -83 -111 -138 -2 -12 -6 -26 -10 -31 -3 -6 -7 -27 -9
-48 -22 -215 -60 -267 -238 -328 -188 -64 -228 -89 -253 -161 -12 -37 -12
-128 0 -219 10 -73 6 -160 -9 -195 -18 -44 -47 -71 -166 -156 -144 -103 -177
-148 -165 -231 6 -46 48 -168 65 -188 9 -11 -5 -35 -22 -35 -36 0 -873 -536
-993 -637 -5 -5 -40 -31 -77 -58 -38 -27 -68 -51 -68 -54 0 -3 44 -36 98 -72
229 -156 368 -251 375 -258 7 -7 -2 -45 -73 -316 -49 -187 -101 -388 -105
-406 -2 -9 -8 -34 -14 -55 -6 -22 -11 -42 -11 -47 0 -4 28 14 63 41 106 82
295 215 462 324 282 184 290 189 294 176 9 -34 46 -95 69 -116 15 -13 61 -46
102 -75 150 -102 181 -146 180 -255 0 -37 -2 -83 -5 -102 -3 -19 -7 -69 -9
-112 -7 -143 34 -186 243 -257 68 -23 138 -53 156 -67 49 -37 80 -113 100
-249 4 -22 8 -44 9 -50 2 -5 6 -26 10 -45 11 -50 56 -112 96 -132 36 -17 92
-25 247 -32 159 -8 198 -37 285 -210 28 -56 66 -120 84 -143 51 -62 127 -81
224 -53 25 7 54 14 65 16 11 2 43 10 72 17 72 19 154 14 196 -11 18 -12 62
-51 98 -88 117 -122 134 -136 178 -156 67 -30 144 -12 256 63 143 94 224 107
330 50 33 -17 78 -43 100 -56 68 -42 126 -67 171 -71 70 -8 107 17 263 180 76
79 113 100 181 100 63 0 84 -4 207 -37 28 -7 80 -15 115 -16 60 -2 68 0 109
31 35 27 57 59 105 152 34 65 74 134 89 153 40 51 97 72 207 78 216 12 265 25
306 82 21 30 48 113 56 173 32 222 62 258 277 329 114 38 182 78 205 122 19
37 22 115 10 229 -18 176 -7 219 73 292 l56 50 60 -6 c33 -4 71 -8 85 -10 14
-3 42 -7 62 -10 21 -3 77 -13 125 -21 49 -9 99 -18 113 -20 34 -5 227 -44 270
-55 19 -5 49 -12 67 -15 56 -9 416 -103 522 -136 69 -21 83 -19 59 8 -9 10
-112 162 -230 338 -196 292 -222 337 -198 355 6 5 42 61 65 102 6 10 56 92
113 182 56 90 102 166 102 169 0 5 -25 13 -190 61 -130 38 -443 115 -540 132
-127 23 -176 37 -185 50 -13 21 -86 115 -102 132 -33 34 -77 109 -90 151 -7
25 -13 47 -12 48 0 2 5 21 10 44 6 23 29 88 53 143 88 207 71 264 -111 387
-113 77 -169 136 -179 190 -9 50 -9 59 1 154 28 274 11 301 -253 390 -163 55
-201 98 -227 255 -33 201 -75 279 -156 294 -13 3 -24 5 -24 6 0 3 -70 8 -177
14 -175 8 -220 41 -307 221 -100 207 -150 228 -386 165 -22 -6 -51 -14 -65
-17 -14 -4 -53 -7 -86 -7 -72 0 -118 25 -187 101 -189 208 -239 222 -422 113
-161 -95 -208 -111 -280 -91 -22 6 -91 39 -152 75 -161 92 -203 102 -275 65z
m587 -1173 c55 -3 114 -8 130 -11 17 -3 46 -8 65 -11 19 -3 48 -8 64 -11 46
-8 217 -60 266 -82 l45 -20 -35 -1 c-19 -1 -42 -3 -50 -4 -47 -10 -180 -15
-176 -7 9 14 -20 32 -38 25 -11 -4 -15 -13 -11 -25 5 -15 1 -19 -17 -20 -13 0
-32 -2 -43 -5 -11 -2 -42 -6 -70 -9 -27 -3 -61 -8 -75 -10 -14 -2 -43 -6 -65
-10 -23 -3 -50 -7 -62 -9 -12 -3 -43 -8 -70 -12 -26 -3 -57 -8 -68 -11 -11 -2
-54 -10 -95 -18 -41 -8 -119 -23 -174 -34 -54 -12 -109 -23 -122 -25 -13 -3
-32 -7 -42 -10 -9 -3 -28 -7 -42 -10 -14 -2 -113 -27 -220 -54 -107 -27 -208
-49 -225 -48 -19 1 -29 -4 -28 -11 2 -7 -3 -13 -10 -13 -6 0 -51 -13 -99 -29
-48 -15 -85 -24 -82 -19 12 18 97 94 172 151 183 140 403 247 622 301 154 38
187 43 325 52 55 3 102 8 103 9 2 2 9 2 15 0 7 -3 57 -7 112 -9z m1357 -788
c57 -86 123 -207 120 -220 -1 -5 3 -8 8 -8 6 0 10 -8 10 -18 0 -10 4 -22 9
-27 26 -28 111 -324 127 -442 4 -32 3 -33 -36 -31 -32 1 -40 5 -40 20 0 24
-38 24 -48 0 -6 -16 -21 -18 -122 -18 -137 -1 -424 -13 -466 -19 -28 -5 -28
-5 -9 11 32 25 234 144 245 144 6 0 10 3 10 8 0 4 17 15 38 25 20 9 69 35 107
57 81 45 79 36 50 200 -15 86 -15 95 -1 106 23 16 20 43 -6 53 -12 4 -22 16
-23 27 -2 23 -24 160 -31 192 -2 12 -3 22 -1 22 2 0 29 -37 59 -82z m-2299
-851 c-4 -8 -35 -38 -68 -67 -33 -30 -147 -140 -254 -245 l-193 -191 13 -60
c7 -32 13 -63 15 -69 1 -5 9 -39 18 -75 8 -36 23 -96 31 -135 21 -90 20 -85
45 -190 12 -49 24 -101 26 -115 3 -14 9 -41 14 -60 12 -44 12 -53 1 -46 -14 9
-41 -5 -41 -20 0 -20 27 -29 44 -15 12 10 17 -1 31 -61 25 -107 26 -118 17
-118 -29 0 -293 295 -332 370 -7 14 -16 27 -20 30 -11 9 -49 75 -99 176 -62
124 -112 270 -139 399 -36 176 -38 158 21 185 193 85 500 200 747 278 69 22
126 41 128 41 2 1 -1 -5 -5 -12z m2270 -1130 c-97 -135 -173 -218 -293 -321
-278 -239 -640 -392 -995 -421 -142 -12 -359 -2 -463 20 -171 36 -225 52 -352
103 -131 52 -307 150 -293 162 4 4 22 12 38 18 17 5 38 13 48 17 12 5 17 2 17
-9 0 -10 9 -16 25 -16 22 0 25 4 23 26 -3 28 -8 26 167 85 50 17 97 33 105 36
8 3 20 7 25 9 220 65 322 93 470 129 174 43 195 47 260 60 17 3 55 11 85 17
30 6 62 12 70 14 27 4 94 15 120 20 46 9 65 12 115 18 28 4 74 11 103 16 29 5
56 9 60 8 4 -1 25 1 47 5 39 7 80 12 195 22 30 3 73 7 95 10 22 2 76 7 121 11
69 5 82 4 87 -10 8 -21 29 -20 48 2 9 11 31 18 62 19 l47 1 -37 -51z"/>
<path d="M3880 5675 c-6 -8 -5 -18 5 -31 12 -17 15 -18 30 -3 18 18 12 46 -11
46 -8 0 -19 -6 -24 -12z"/>
<path d="M3996 5674 c-8 -21 11 -45 30 -37 19 7 18 39 -2 47 -21 8 -21 8 -28
-10z"/>
<path d="M3773 5673 c-7 -2 -13 -14 -13 -25 0 -14 6 -19 23 -16 14 2 22 10 22
22 0 21 -12 28 -32 19z"/>
<path d="M4117 5673 c-4 -3 -7 -15 -7 -25 0 -23 38 -25 47 -2 8 21 -24 43 -40
27z"/>
<path d="M3651 5651 c-12 -8 -12 -12 -2 -25 15 -18 21 -19 39 -8 15 10 6 42
-12 42 -6 0 -17 -4 -25 -9z"/>
<path d="M4226 5651 c-10 -16 6 -42 23 -39 9 2 17 13 19 26 3 16 -2 22 -17 22
-11 0 -22 -4 -25 -9z"/>
<path d="M3543 5633 c-20 -7 -15 -31 7 -43 16 -9 22 -8 26 5 7 17 -1 45 -13
44 -4 0 -14 -3 -20 -6z"/>
<path d="M3425 5589 c-8 -24 -7 -26 20 -31 23 -4 34 30 13 43 -20 13 -26 11
-33 -12z"/>
<path d="M3321 5557 c-16 -16 -14 -34 5 -41 21 -8 34 1 34 24 0 22 -23 33 -39
17z"/>
<path d="M3213 5509 c-15 -15 -5 -39 17 -39 22 0 35 30 18 42 -17 10 -22 10
-35 -3z"/>
<path d="M3104 5449 c-3 -6 1 -18 10 -27 15 -15 17 -15 32 0 19 19 11 38 -16
38 -10 0 -22 -5 -26 -11z"/>
<path d="M3007 5386 c-6 -15 11 -36 29 -36 14 0 27 28 18 41 -8 14 -41 11 -47
-5z"/>
<path d="M5450 4686 c0 -7 7 -20 16 -27 14 -11 18 -10 30 5 7 11 11 23 8 27
-9 15 -54 10 -54 -5z"/>
<path d="M5503 4589 c-16 -16 -5 -39 17 -39 25 0 35 18 20 35 -15 18 -22 19
-37 4z"/>
<path d="M5536 4474 c-10 -25 12 -46 35 -33 15 8 17 14 9 29 -13 24 -36 26
-44 4z"/>
<path d="M5573 4373 c-19 -7 -16 -31 6 -42 21 -12 31 -5 31 20 0 18 -18 29
-37 22z"/>
<path d="M2296 3781 c-9 -14 4 -41 20 -41 15 0 37 34 27 44 -9 9 -41 7 -47 -3z"/>
<path d="M2321 3671 c-19 -12 -6 -41 17 -41 26 0 33 10 21 31 -11 21 -18 23
-38 10z"/>
<path d="M2345 3549 c-8 -24 9 -41 32 -32 18 7 16 40 -3 47 -22 8 -22 8 -29
-15z"/>
<path d="M2386 3444 c-16 -15 -16 -18 -2 -33 15 -14 18 -14 33 2 16 15 16 18
2 33 -15 14 -18 14 -33 -2z"/>
<path d="M2427 3343 c-15 -14 -7 -43 12 -43 24 0 33 13 25 34 -6 16 -25 21
-37 9z"/>
<path d="M2481 3237 c-16 -16 -14 -34 6 -41 16 -7 33 8 33 30 0 17 -26 24 -39
11z"/>
<path d="M2536 3143 c-11 -11 -7 -41 7 -45 18 -7 37 2 37 17 0 16 -34 38 -44
28z"/>
<path d="M2601 3041 c-19 -12 -6 -41 18 -41 23 0 34 23 18 39 -13 13 -18 13
-36 2z"/>
<path d="M2671 2946 c-9 -11 -8 -18 5 -31 17 -16 18 -16 31 1 9 13 10 21 2 31
-14 17 -24 16 -38 -1z"/>
<path d="M5223 2953 c-7 -2 -13 -14 -13 -25 0 -14 6 -19 23 -16 14 2 22 10 22
22 0 21 -12 28 -32 19z"/>
<path d="M5134 2855 c-4 -9 -2 -21 4 -27 15 -15 44 -1 40 19 -4 23 -36 29 -44
8z"/>
<path d="M5057 2784 c-4 -4 -7 -16 -7 -26 0 -14 6 -19 23 -16 14 2 22 10 22
23 0 20 -25 32 -38 19z"/>
<path d="M4966 2712 c-13 -13 -5 -40 14 -45 13 -3 21 1 26 15 3 11 3 22 0 26
-9 8 -33 11 -40 4z"/>
<path d="M4878 2639 c-21 -12 -13 -39 12 -39 23 0 32 13 24 34 -7 18 -12 19
-36 5z"/>
<path d="M4777 2583 c-12 -12 -7 -41 7 -46 19 -8 38 16 30 37 -6 16 -25 21
-37 9z"/>
<path d="M3214 2515 c-4 -9 -2 -21 4 -27 15 -15 44 -1 40 19 -4 23 -36 29 -44
8z"/>
<path d="M4667 2516 c-6 -15 11 -36 29 -36 13 0 26 35 16 44 -11 11 -40 6 -45
-8z"/>
<path d="M3326 2474 c-16 -15 -16 -18 -2 -33 15 -14 18 -14 33 2 16 15 16 18
2 33 -15 14 -18 14 -33 -2z"/>
<path d="M4565 2469 c-8 -24 9 -41 32 -32 18 7 16 40 -3 47 -22 8 -22 8 -29
-15z"/>
<path d="M3431 2432 c-7 -13 -7 -22 1 -30 17 -17 26 -15 38 8 8 15 6 21 -9 30
-16 8 -22 7 -30 -8z"/>
<path d="M4461 2437 c-16 -16 -14 -34 5 -41 21 -8 34 1 34 24 0 22 -23 33 -39
17z"/>
<path d="M4345 2399 c-7 -22 10 -42 30 -36 19 6 16 36 -4 46 -16 9 -21 7 -26
-10z"/>
<path d="M3537 2396 c-3 -8 1 -20 9 -27 12 -10 18 -9 31 3 8 9 12 21 9 27 -10
16 -43 14 -49 -3z"/>
<path d="M3653 2374 c-3 -8 1 -22 9 -30 13 -13 16 -13 27 0 7 9 11 23 7 31 -7
20 -35 19 -43 -1z"/>
<path d="M4231 2371 c-12 -21 -5 -31 20 -31 19 0 29 17 21 38 -6 18 -30 15
-41 -7z"/>
<path d="M3767 2356 c-9 -22 19 -42 37 -26 19 15 10 40 -14 40 -10 0 -20 -6
-23 -14z"/>
<path d="M3889 2359 c-11 -6 -11 -13 -3 -26 15 -25 38 -23 42 3 3 24 -18 37
-39 23z"/>
<path d="M4007 2357 c-16 -11 -16 -14 -3 -32 14 -19 16 -19 33 -2 15 15 16 19
2 32 -12 13 -18 13 -32 2z"/>
<path d="M4117 2363 c-23 -22 14 -53 39 -32 11 9 11 15 3 25 -12 15 -31 18
-42 7z"/>
</g>
</svg>
